<mxfile host="app.diagrams.net" modified="2023-10-25T17:24:49.676Z" agent="Mozilla/5.0 (Macintosh; Intel Mac OS X 10_15_7) AppleWebKit/537.36 (KHTML, like Gecko) Chrome/118.0.0.0 Safari/537.36 Edg/118.0.2088.61" etag="BJLIepMU2qC2obLJLvRq" version="22.0.8" type="github">
  <diagram name="AWS 3D" id="aaaa8250-4180-3840-79b5-4cada1eebb92">
    <mxGraphModel dx="2516" dy="1736" grid="0" gridSize="10" guides="1" tooltips="1" connect="1" arrows="1" fold="1" page="0" pageScale="1" pageWidth="850" pageHeight="1100" background="none" math="0" shadow="0">
      <root>
        <mxCell id="0" />
        <mxCell id="1" parent="0" />
        <mxCell id="mBGbrz0uapU3ch0NcTaD-26" value="" style="edgeStyle=isometricEdgeStyle;endArrow=blockThin;html=1;labelBackgroundColor=none;strokeColor=#000000;strokeWidth=6;fontFamily=Verdana;fontSize=12;comic=0;jiggle=0;startArrow=none;startFill=0;exitX=0.28;exitY=0.191;exitDx=0;exitDy=0;exitPerimeter=0;flowAnimation=1;endFill=1;" edge="1" parent="1">
          <mxGeometry width="50" height="100" relative="1" as="geometry">
            <mxPoint x="267" y="1067" as="sourcePoint" />
            <mxPoint x="351.9200000000001" y="1309.6069999999995" as="targetPoint" />
            <Array as="points">
              <mxPoint x="297" y="1203" />
            </Array>
          </mxGeometry>
        </mxCell>
        <mxCell id="mBGbrz0uapU3ch0NcTaD-23" value="" style="edgeStyle=isometricEdgeStyle;endArrow=blockThin;html=1;labelBackgroundColor=none;strokeColor=#000000;strokeWidth=6;fontFamily=Verdana;fontSize=12;comic=0;jiggle=0;startArrow=none;startFill=0;flowAnimation=1;endFill=1;" edge="1" parent="1">
          <mxGeometry width="50" height="100" relative="1" as="geometry">
            <mxPoint x="1603" y="1667" as="sourcePoint" />
            <mxPoint x="447" y="1379.34" as="targetPoint" />
            <Array as="points">
              <mxPoint x="687" y="1435.22" />
            </Array>
          </mxGeometry>
        </mxCell>
        <mxCell id="d5ac148becb70bc-7" value="" style="verticalLabelPosition=bottom;html=1;verticalAlign=top;strokeWidth=1;dashed=0;shape=mxgraph.aws3d.flatDoubleEdge;fillColor=#000000;aspect=fixed;rounded=1;shadow=0;comic=0;fontFamily=Verdana;fontSize=12;flipV=1;" parent="1" vertex="1">
          <mxGeometry x="1602" y="1328" width="584" height="333" as="geometry" />
        </mxCell>
        <mxCell id="1a8abee3a6cfdf20-38" value="" style="verticalLabelPosition=bottom;html=1;verticalAlign=top;strokeWidth=1;dashed=0;shape=mxgraph.aws3d.flatDoubleEdge;fillColor=#000000;aspect=fixed;rounded=1;shadow=0;comic=0;fontFamily=Verdana;fontSize=12;flipV=1;" parent="1" vertex="1">
          <mxGeometry x="972" y="992" width="626" height="357" as="geometry" />
        </mxCell>
        <mxCell id="1a8abee3a6cfdf20-28" value="" style="verticalLabelPosition=bottom;html=1;verticalAlign=top;strokeWidth=1;dashed=0;shape=mxgraph.aws3d.flatDoubleEdge;fillColor=#000000;aspect=fixed;rounded=1;shadow=0;comic=0;fontFamily=Verdana;fontSize=12;flipV=1;" parent="1" vertex="1">
          <mxGeometry x="262" y="779" width="512" height="292" as="geometry" />
        </mxCell>
        <mxCell id="1a8abee3a6cfdf20-4" value="DynamoDB" style="verticalLabelPosition=bottom;html=1;verticalAlign=top;strokeWidth=1;dashed=0;shape=mxgraph.aws3d.dynamoDb;fillColor=#ECECEC;strokeColor=#5E5E5E;aspect=fixed;rounded=1;shadow=0;comic=0;fontSize=27;" parent="1" vertex="1">
          <mxGeometry x="188" y="1298" width="181.5" height="210" as="geometry" />
        </mxCell>
        <mxCell id="1a8abee3a6cfdf20-5" value="" style="edgeStyle=isometricEdgeStyle;endArrow=blockThin;html=1;labelBackgroundColor=none;strokeColor=#000000;strokeWidth=6;fontFamily=Verdana;fontSize=12;comic=0;jiggle=0;startArrow=none;startFill=0;flowAnimation=1;endFill=1;" parent="1" edge="1">
          <mxGeometry width="50" height="100" relative="1" as="geometry">
            <mxPoint x="975" y="1355" as="sourcePoint" />
            <mxPoint x="398" y="1345" as="targetPoint" />
            <Array as="points">
              <mxPoint x="685" y="1345" />
            </Array>
          </mxGeometry>
        </mxCell>
        <mxCell id="1a8abee3a6cfdf20-6" value="Elastic Load&lt;br style=&quot;font-size: 27px;&quot;&gt;Balascing" style="verticalLabelPosition=bottom;html=1;verticalAlign=top;strokeWidth=1;dashed=0;shape=mxgraph.aws3d.elasticLoadBalancing;fillColor=#ECECEC;strokeColor=#5E5E5E;aspect=fixed;rounded=1;shadow=0;comic=0;fontSize=27;" parent="1" vertex="1">
          <mxGeometry x="312" y="948" width="92" height="88.17" as="geometry" />
        </mxCell>
        <mxCell id="1a8abee3a6cfdf20-7" value="Workflow&lt;br style=&quot;font-size: 27px;&quot;&gt;Service" style="verticalLabelPosition=bottom;html=1;verticalAlign=top;strokeWidth=1;dashed=0;shape=mxgraph.aws3d.workflowService;fillColor=#ECECEC;strokeColor=#5E5E5E;aspect=fixed;rounded=1;shadow=0;comic=0;fontSize=27;" parent="1" vertex="1">
          <mxGeometry x="511" y="788" width="182.20000000000002" height="148.4" as="geometry" />
        </mxCell>
        <mxCell id="1a8abee3a6cfdf20-8" value="CloudFront" style="verticalLabelPosition=bottom;html=1;verticalAlign=top;strokeWidth=1;dashed=0;shape=mxgraph.aws3d.cloudfront;fillColor=#ECECEC;strokeColor=#5E5E5E;aspect=fixed;rounded=1;shadow=0;comic=0;fontSize=27;align=right;" parent="1" vertex="1">
          <mxGeometry x="312" y="618" width="103.8" height="169.79999999999998" as="geometry" />
        </mxCell>
        <mxCell id="1a8abee3a6cfdf20-9" value="Internet&lt;br style=&quot;font-size: 27px;&quot;&gt;Gateway" style="verticalLabelPosition=bottom;html=1;verticalAlign=top;strokeWidth=1;dashed=0;shape=mxgraph.aws3d.internetGateway;fillColor=#ECECEC;strokeColor=#5E5E5E;aspect=fixed;rounded=1;shadow=0;comic=0;fontSize=27;flipH=1;flipV=0;" parent="1" vertex="1">
          <mxGeometry x="782" y="378" width="116.7" height="102.8" as="geometry" />
        </mxCell>
        <mxCell id="1a8abee3a6cfdf20-10" value="Internet&lt;br style=&quot;border-color: var(--border-color); font-size: 27px;&quot;&gt;&lt;span style=&quot;font-size: 27px;&quot;&gt;Gateway&lt;/span&gt;" style="verticalLabelPosition=bottom;html=1;verticalAlign=top;strokeWidth=1;dashed=0;shape=mxgraph.aws3d.internetGateway;fillColor=#ECECEC;strokeColor=#5E5E5E;aspect=fixed;rounded=1;shadow=0;comic=0;fontSize=27;flipH=1;flipV=0;" parent="1" vertex="1">
          <mxGeometry x="1694" y="827" width="116.7" height="102.8" as="geometry" />
        </mxCell>
        <mxCell id="1a8abee3a6cfdf20-11" value="Internet&lt;br style=&quot;border-color: var(--border-color); font-size: 27px;&quot;&gt;&lt;span style=&quot;font-size: 27px;&quot;&gt;Gateway&lt;/span&gt;" style="verticalLabelPosition=bottom;html=1;verticalAlign=top;strokeWidth=1;dashed=0;shape=mxgraph.aws3d.internetGateway;fillColor=#ECECEC;strokeColor=#5E5E5E;aspect=fixed;rounded=1;shadow=0;comic=0;fontSize=27;flipH=1;flipV=0;" parent="1" vertex="1">
          <mxGeometry x="2302" y="1151" width="116.7" height="102.8" as="geometry" />
        </mxCell>
        <mxCell id="1a8abee3a6cfdf20-12" value="Redshift" style="verticalLabelPosition=bottom;html=1;verticalAlign=top;strokeWidth=1;dashed=0;shape=mxgraph.aws3d.redshift;fillColor=#CC0000;strokeColor=#E6E6E6;aspect=fixed;rounded=1;shadow=0;comic=0;fontSize=27;" parent="1" vertex="1">
          <mxGeometry x="1130" y="788" width="150" height="190" as="geometry" />
        </mxCell>
        <mxCell id="1a8abee3a6cfdf20-13" value="SimpleDB" style="verticalLabelPosition=bottom;html=1;verticalAlign=top;strokeWidth=1;dashed=0;shape=mxgraph.aws3d.simpleDb2;fillColor=#ECECEC;strokeColor=#5E5E5E;aspect=fixed;rounded=1;shadow=0;comic=0;fontSize=27;" parent="1" vertex="1">
          <mxGeometry x="764" y="595" width="181.5" height="192.6" as="geometry" />
        </mxCell>
        <mxCell id="1a8abee3a6cfdf20-14" value="Snapshots" style="verticalLabelPosition=bottom;html=1;verticalAlign=bottom;strokeWidth=1;dashed=0;shape=mxgraph.aws3d.snapshot;fillColor=#4286c5;strokeColor=#57A2D8;aspect=fixed;rounded=1;shadow=0;comic=0;fontSize=27;align=left;" parent="1" vertex="1">
          <mxGeometry x="2000" y="1376" width="92" height="60" as="geometry" />
        </mxCell>
        <mxCell id="1a8abee3a6cfdf20-15" value="" style="verticalLabelPosition=bottom;html=1;verticalAlign=top;strokeWidth=1;dashed=0;shape=mxgraph.aws3d.application_server;fillColor=#ECECEC;strokeColor=#5E5E5E;aspect=fixed;rounded=1;shadow=0;comic=0;fontSize=12" parent="1" vertex="1">
          <mxGeometry x="1095" y="1130" width="123" height="124" as="geometry" />
        </mxCell>
        <mxCell id="1a8abee3a6cfdf20-16" value="" style="verticalLabelPosition=bottom;html=1;verticalAlign=top;strokeWidth=1;dashed=0;shape=mxgraph.aws3d.application_server;fillColor=#ECECEC;strokeColor=#5E5E5E;aspect=fixed;rounded=1;shadow=0;comic=0;fontSize=12" parent="1" vertex="1">
          <mxGeometry x="1025" y="1170" width="123" height="124" as="geometry" />
        </mxCell>
        <mxCell id="1a8abee3a6cfdf20-17" value="" style="verticalLabelPosition=bottom;html=1;verticalAlign=top;strokeWidth=1;dashed=0;shape=mxgraph.aws3d.application_server;fillColor=#ECECEC;strokeColor=#5E5E5E;aspect=fixed;rounded=1;shadow=0;comic=0;fontSize=12" parent="1" vertex="1">
          <mxGeometry x="1165" y="1170" width="123" height="124" as="geometry" />
        </mxCell>
        <mxCell id="1a8abee3a6cfdf20-18" value="EC2 Instances" style="verticalLabelPosition=bottom;html=1;verticalAlign=top;strokeWidth=1;dashed=0;shape=mxgraph.aws3d.application_server;fillColor=#ECECEC;strokeColor=#5E5E5E;aspect=fixed;rounded=1;shadow=0;comic=0;fontSize=27;" parent="1" vertex="1">
          <mxGeometry x="1095" y="1210" width="123" height="124" as="geometry" />
        </mxCell>
        <mxCell id="1a8abee3a6cfdf20-19" value="Elastic&lt;br style=&quot;font-size: 27px;&quot;&gt;Beanstalk&lt;br style=&quot;font-size: 27px;&quot;&gt;" style="verticalLabelPosition=bottom;html=1;verticalAlign=top;strokeWidth=1;dashed=0;shape=mxgraph.aws3d.elasticBeanstalk;fillColor=#ECECEC;strokeColor=#5E5E5E;aspect=fixed;rounded=1;shadow=0;comic=0;fontSize=27;" parent="1" vertex="1">
          <mxGeometry x="1352" y="1333" width="182" height="140" as="geometry" />
        </mxCell>
        <mxCell id="1a8abee3a6cfdf20-20" value="SimpleDB" style="verticalLabelPosition=bottom;html=1;verticalAlign=top;strokeWidth=1;dashed=0;shape=mxgraph.aws3d.simpleDb2;fillColor=#004C99;strokeColor=#99CCFF;aspect=fixed;rounded=1;shadow=0;comic=0;fontSize=27;" parent="1" vertex="1">
          <mxGeometry x="1662" y="1129" width="181.5" height="192.6" as="geometry" />
        </mxCell>
        <mxCell id="1a8abee3a6cfdf20-22" value="Application&lt;br style=&quot;font-size: 27px;&quot;&gt;on&lt;br style=&quot;font-size: 27px;&quot;&gt;Data Center" style="verticalLabelPosition=bottom;html=1;verticalAlign=top;strokeWidth=1;dashed=0;shape=mxgraph.aws3d.dataCenter;fillColor=#ffffff;strokeColor=#5E5E5E;aspect=fixed;rounded=1;shadow=0;comic=0;fontSize=27;" parent="1" vertex="1">
          <mxGeometry x="1386" y="972" width="123" height="142" as="geometry" />
        </mxCell>
        <mxCell id="1a8abee3a6cfdf20-23" value="" style="verticalLabelPosition=bottom;html=1;verticalAlign=top;strokeWidth=1;dashed=0;shape=mxgraph.aws3d.application2;fillColor=#86E83A;strokeColor=#B0F373;aspect=fixed;rounded=1;shadow=0;comic=0;fontSize=12" parent="1" vertex="1">
          <mxGeometry x="1417" y="975" width="62" height="53" as="geometry" />
        </mxCell>
        <mxCell id="1a8abee3a6cfdf20-1" value="" style="verticalLabelPosition=bottom;html=1;verticalAlign=top;strokeWidth=1;dashed=0;shape=mxgraph.aws3d.secureConnection;fillColor=#000000;strokeColor=#ffffff;aspect=fixed;rounded=1;shadow=0;comic=0;fontSize=12" parent="1" vertex="1">
          <mxGeometry x="203" y="1068" width="56.99999999999999" height="34" as="geometry" />
        </mxCell>
        <mxCell id="d5ac148becb70bc-2" value="" style="verticalLabelPosition=bottom;html=1;verticalAlign=middle;strokeWidth=1;dashed=0;shape=mxgraph.aws3d.snapshot;fillColor=#4286c5;strokeColor=#57A2D8;aspect=fixed;rounded=1;shadow=0;comic=0;fontFamily=Verdana;fontSize=27;" parent="1" vertex="1">
          <mxGeometry x="1942" y="1408" width="92" height="60" as="geometry" />
        </mxCell>
        <mxCell id="d5ac148becb70bc-3" value="RDS Master" style="verticalLabelPosition=bottom;html=1;verticalAlign=top;strokeWidth=1;dashed=0;shape=mxgraph.aws3d.rdsMaster;fillColor=#ECECEC;strokeColor=#5E5E5E;aspect=fixed;rounded=1;shadow=0;comic=0;fontFamily=Verdana;fontSize=27;" parent="1" vertex="1">
          <mxGeometry x="1662" y="1492" width="123" height="133" as="geometry" />
        </mxCell>
        <mxCell id="1a8abee3a6cfdf20-2" value="" style="verticalLabelPosition=bottom;html=1;verticalAlign=top;strokeWidth=1;dashed=0;shape=mxgraph.aws3d.secureConnection;fillColor=#000000;strokeColor=#ffffff;aspect=fixed;rounded=1;shadow=0;comic=0;fontSize=12" parent="1" vertex="1">
          <mxGeometry x="911" y="1358" width="56.99999999999999" height="34" as="geometry" />
        </mxCell>
        <mxCell id="d5ac148becb70bc-16" value="" style="verticalLabelPosition=bottom;html=1;verticalAlign=top;strokeWidth=1;dashed=0;shape=mxgraph.aws3d.secureConnection;fillColor=#000000;strokeColor=#ffffff;aspect=fixed;rounded=1;shadow=0;comic=0;fontSize=12" parent="1" vertex="1">
          <mxGeometry x="1538" y="1668" width="56.99999999999999" height="34" as="geometry" />
        </mxCell>
        <mxCell id="mBGbrz0uapU3ch0NcTaD-15" value="" style="endArrow=blockThin;html=1;strokeWidth=4;startArrow=oval;startFill=1;flowAnimation=1;exitX=0.974;exitY=0.04;exitDx=0;exitDy=0;exitPerimeter=0;entryX=0.014;entryY=1.036;entryDx=0;entryDy=0;entryPerimeter=0;endFill=1;curved=1;" edge="1" parent="1">
          <mxGeometry width="50" height="50" relative="1" as="geometry">
            <mxPoint x="1712.1999999999998" y="925.44" as="sourcePoint" />
            <mxPoint x="1525" y="1035" as="targetPoint" />
          </mxGeometry>
        </mxCell>
        <mxCell id="mBGbrz0uapU3ch0NcTaD-17" value="" style="endArrow=blockThin;html=1;strokeWidth=4;startArrow=blockThin;startFill=1;flowAnimation=1;exitX=0.949;exitY=0.943;exitDx=0;exitDy=0;exitPerimeter=0;entryX=0.062;entryY=-0.029;entryDx=0;entryDy=0;entryPerimeter=0;endFill=1;curved=1;dashed=1;strokeColor=#2d6195;" edge="1" parent="1">
          <mxGeometry width="50" height="50" relative="1" as="geometry">
            <mxPoint x="515.1730000000001" y="919.9999999999999" as="sourcePoint" />
            <mxPoint x="438.0039999999998" y="968.6000000000003" as="targetPoint" />
          </mxGeometry>
        </mxCell>
        <mxCell id="mBGbrz0uapU3ch0NcTaD-19" value="" style="endArrow=blockThin;html=1;strokeWidth=4;startArrow=oval;startFill=1;flowAnimation=1;exitX=0.974;exitY=0.04;exitDx=0;exitDy=0;exitPerimeter=0;endFill=1;curved=1;" edge="1" parent="1">
          <mxGeometry width="50" height="50" relative="1" as="geometry">
            <mxPoint x="2333.2" y="1241" as="sourcePoint" />
            <mxPoint x="2097" y="1379" as="targetPoint" />
          </mxGeometry>
        </mxCell>
        <mxCell id="mBGbrz0uapU3ch0NcTaD-20" value="" style="endArrow=blockThin;html=1;strokeWidth=4;startArrow=oval;startFill=1;flowAnimation=1;exitX=0.974;exitY=0.04;exitDx=0;exitDy=0;exitPerimeter=0;endFill=1;curved=1;" edge="1" parent="1">
          <mxGeometry width="50" height="50" relative="1" as="geometry">
            <mxPoint x="789.1999999999998" y="482.44000000000005" as="sourcePoint" />
            <mxPoint x="434" y="695" as="targetPoint" />
          </mxGeometry>
        </mxCell>
        <mxCell id="mBGbrz0uapU3ch0NcTaD-27" value="" style="endArrow=blockThin;html=1;strokeWidth=4;startArrow=oval;startFill=1;flowAnimation=1;exitX=0.974;exitY=0.04;exitDx=0;exitDy=0;exitPerimeter=0;endFill=1;curved=1;" edge="1" parent="1">
          <mxGeometry width="50" height="50" relative="1" as="geometry">
            <mxPoint x="1514.1999999999998" y="1460" as="sourcePoint" />
            <mxPoint x="1643" y="1536" as="targetPoint" />
          </mxGeometry>
        </mxCell>
        <mxCell id="mBGbrz0uapU3ch0NcTaD-28" value="" style="endArrow=blockThin;html=1;strokeWidth=4;startArrow=oval;startFill=1;flowAnimation=1;exitX=0.974;exitY=0.04;exitDx=0;exitDy=0;exitPerimeter=0;endFill=1;curved=1;" edge="1" parent="1">
          <mxGeometry width="50" height="50" relative="1" as="geometry">
            <mxPoint x="1254.1999999999998" y="1317" as="sourcePoint" />
            <mxPoint x="1344" y="1368" as="targetPoint" />
          </mxGeometry>
        </mxCell>
        <mxCell id="mBGbrz0uapU3ch0NcTaD-30" value="" style="endArrow=blockThin;html=1;strokeWidth=4;startArrow=oval;startFill=1;flowAnimation=1;endFill=1;curved=1;" edge="1" parent="1">
          <mxGeometry width="50" height="50" relative="1" as="geometry">
            <mxPoint x="1843" y="1314" as="sourcePoint" />
            <mxPoint x="1964" y="1386" as="targetPoint" />
          </mxGeometry>
        </mxCell>
        <mxCell id="mBGbrz0uapU3ch0NcTaD-31" value="" style="endArrow=blockThin;html=1;strokeWidth=4;startArrow=oval;startFill=1;flowAnimation=1;endFill=1;curved=1;" edge="1" parent="1">
          <mxGeometry width="50" height="50" relative="1" as="geometry">
            <mxPoint x="1299" y="994" as="sourcePoint" />
            <mxPoint x="1370" y="1037" as="targetPoint" />
          </mxGeometry>
        </mxCell>
        <mxCell id="mBGbrz0uapU3ch0NcTaD-32" value="" style="endArrow=blockThin;html=1;strokeWidth=4;startArrow=oval;startFill=1;flowAnimation=1;endFill=1;curved=1;" edge="1" parent="1">
          <mxGeometry width="50" height="50" relative="1" as="geometry">
            <mxPoint x="1948" y="1466" as="sourcePoint" />
            <mxPoint x="1806" y="1548" as="targetPoint" />
          </mxGeometry>
        </mxCell>
        <mxCell id="mBGbrz0uapU3ch0NcTaD-33" value="" style="endArrow=blockThin;html=1;strokeWidth=4;startArrow=oval;startFill=1;flowAnimation=1;exitX=0.974;exitY=0.04;exitDx=0;exitDy=0;exitPerimeter=0;endFill=1;curved=1;" edge="1" parent="1">
          <mxGeometry width="50" height="50" relative="1" as="geometry">
            <mxPoint x="422.1999999999998" y="791" as="sourcePoint" />
            <mxPoint x="505" y="839" as="targetPoint" />
          </mxGeometry>
        </mxCell>
        <mxCell id="mBGbrz0uapU3ch0NcTaD-34" value="" style="endArrow=blockThin;html=1;strokeWidth=4;startArrow=oval;startFill=1;flowAnimation=1;endFill=1;curved=1;" edge="1" parent="1">
          <mxGeometry width="50" height="50" relative="1" as="geometry">
            <mxPoint x="1387" y="1109" as="sourcePoint" />
            <mxPoint x="1278" y="1171" as="targetPoint" />
          </mxGeometry>
        </mxCell>
        <mxCell id="mBGbrz0uapU3ch0NcTaD-35" value="" style="endArrow=blockThin;html=1;strokeWidth=4;startArrow=blockThin;startFill=1;flowAnimation=1;exitX=0.949;exitY=0.943;exitDx=0;exitDy=0;exitPerimeter=0;entryX=0.062;entryY=-0.029;entryDx=0;entryDy=0;entryPerimeter=0;endFill=1;curved=1;dashed=1;strokeColor=#2d6195;" edge="1" parent="1">
          <mxGeometry width="50" height="50" relative="1" as="geometry">
            <mxPoint x="771.1730000000001" y="783.9999999999999" as="sourcePoint" />
            <mxPoint x="694.0039999999998" y="832.6000000000003" as="targetPoint" />
          </mxGeometry>
        </mxCell>
      </root>
    </mxGraphModel>
  </diagram>
</mxfile>
